<svg width="157" height="40" viewBox="0 0 157 40" fill="none" xmlns="http://www.w3.org/2000/svg">
<path d="M16.0507 31.1688C12.2163 30.7588 9.1489 27.6324 8.79103 23.7885C8.58653 21.4821 9.30227 19.3295 10.6315 17.6895C10.7849 17.4845 10.7849 17.2282 10.5804 17.0745L4.80334 11.7442C4.59884 11.5905 4.29209 11.5905 4.13872 11.7955C1.32689 15.0756 -0.309087 19.4321 0.0487829 24.1985C0.662274 32.8088 7.76854 39.6766 16.3574 39.9841C25.9176 40.3941 33.8419 32.8088 34.0975 23.3785C34.0975 23.1222 33.893 22.9172 33.6374 22.9172H25.7643C25.5598 22.9172 25.3041 23.1222 25.3041 23.3272C25.0485 28.0424 20.9075 31.7325 16.0507 31.1688Z" fill="#FA4200"/>
<path d="M26.0711 9.02845L21.7767 15.64C21.6233 15.845 21.6744 16.1525 21.8789 16.255C23.157 17.1775 24.1795 18.5101 24.7419 19.9964C24.8441 20.2014 25.0486 20.3039 25.3042 20.2527L32.7684 17.8438C33.024 17.7926 33.1774 17.485 33.0751 17.28C31.8481 13.8461 29.5987 10.9248 26.6846 8.92595C26.4801 8.77219 26.2245 8.82344 26.0711 9.02845Z" fill="#FA4200"/>
<path d="M14.9771 2.51898L16.4086 9.43801C16.4597 9.64301 16.6131 9.79677 16.8687 9.79677C18.3002 9.79677 19.6805 9.95053 21.0097 10.3605C21.2142 10.4118 21.4699 10.3093 21.5721 10.1555L24.8441 3.90279C24.9974 3.69778 24.8952 3.39026 24.6396 3.28776C21.7255 1.90396 18.5047 1.44269 15.3349 1.95521C15.0793 2.00646 14.926 2.26272 14.9771 2.51898Z" fill="#FA4200"/>
<path d="M3.67882 4.00557L7.76876 8.20824C7.92213 8.36199 8.17776 8.41324 8.33113 8.25949C9.30249 7.64446 10.4272 7.13194 11.5008 6.77318C11.7053 6.72193 11.8587 6.51692 11.8076 6.26066L11.2963 0.417924C11.2452 0.161664 11.0407 -0.0433459 10.7851 0.00790616C8.12663 0.366671 5.62154 1.54547 3.67882 3.28804C3.47433 3.49305 3.47433 3.80056 3.67882 4.00557Z" fill="#FA4200"/>
<path d="M59.6595 23.5845C59.6595 19.9968 56.8476 17.6905 54.0358 17.6905C50.8661 17.6905 48.5144 19.9456 48.5144 23.5845C48.5144 27.1721 50.8661 29.4272 54.0358 29.4272C56.8476 29.4272 59.6595 27.1721 59.6595 23.5845ZM65.5899 33.3224H60.2218L59.7106 31.7848C58.0746 33.1173 55.8763 33.8861 53.1667 33.8861C48.1565 33.8861 43.5042 29.6835 43.5042 23.5332C43.5042 17.383 48.1565 13.1803 53.1667 13.1803C55.8763 13.1803 58.0235 13.9491 59.7106 15.3329L60.2218 13.7441H64.6696V28.9147C64.6185 30.2472 65.2831 32.0923 65.5899 33.3224Z" fill="black"/>
<path d="M151.121 23.5839C151.121 19.9962 148.309 17.6899 145.497 17.6899C142.327 17.6899 139.976 19.945 139.976 23.5839C139.976 27.1715 142.327 29.4266 145.497 29.4266C148.309 29.4266 151.121 27.1715 151.121 23.5839ZM157 33.3217H151.632L151.121 31.7842C149.485 33.1167 147.286 33.8855 144.577 33.8855C139.567 33.8855 134.914 29.6828 134.914 23.5326C134.914 17.3824 139.567 13.1797 144.577 13.1797C147.286 13.1797 149.434 13.9485 151.121 15.3323L151.632 13.7435H156.08V28.9141C156.08 30.2466 156.744 32.0917 157 33.3217Z" fill="black"/>
<path d="M86.8063 33.3217H68.8105L77.655 18.2024H69.3729V13.7947H85.886L77.0415 28.914H85.7327L86.8063 33.3217Z" fill="black"/>
<path d="M131.489 21.4313V33.3217H126.274V22.5076C126.274 19.7912 124.689 17.9461 122.287 17.9461C119.321 17.9461 117.379 19.8937 117.379 24.6601V33.3217H112.164V13.7947H116.919L117.379 15.5373C118.912 13.9997 120.957 13.1797 123.565 13.1797C128.319 13.1797 131.489 16.5623 131.489 21.4313Z" fill="black"/>
<path d="M98.3094 17.6899C100.406 17.6899 102.246 18.7662 102.911 21.2775H93.4526C94.1172 18.8687 96.3667 17.6899 98.3094 17.6899ZM98.2583 29.4778C95.8555 29.4778 93.8616 27.7353 93.3504 24.9164H108.228V23.1738C108.023 17.2286 103.524 13.1797 98.3094 13.1797C92.6858 13.1797 88.1868 17.4336 88.1868 23.5839C88.1868 29.7341 92.6858 33.9368 98.2072 33.9368C101.786 33.9368 104.802 32.553 106.694 29.7341L103.217 27.069C102.144 28.5553 100.559 29.4778 98.2583 29.4778Z" fill="black"/>
</svg>
